<?xml version="1.0" standalone="no"?>
<!DOCTYPE svg PUBLIC "-//W3C//DTD SVG 20010904//EN"
 "http://www.w3.org/TR/2001/REC-SVG-20010904/DTD/svg10.dtd">
<svg version="1.0" xmlns="http://www.w3.org/2000/svg"
 width="516.000000pt" height="516.000000pt" viewBox="0 0 516.000000 516.000000"
 preserveAspectRatio="xMidYMid meet">
<metadata>
Created by potrace 1.14, written by Peter Selinger 2001-2017
</metadata>
<g transform="translate(0.000000,516.000000) scale(0.100000,-0.100000)"
fill="#000000" stroke="none">
<path d="M1950 4616 c0 -3 21 -27 48 -53 50 -51 143 -158 157 -182 5 -10 -2
-7 -21 5 -46 33 -61 39 -37 16 33 -33 76 -92 71 -98 -3 -2 -25 12 -49 32 -81
68 -204 158 -189 139 23 -30 43 -54 109 -134 33 -40 58 -77 55 -82 -3 -5 -33
13 -67 40 -93 72 -157 113 -157 101 0 -5 4 -10 9 -10 5 0 28 -26 52 -57 42
-55 72 -92 94 -117 38 -42 35 -47 -10 -16 -27 19 -61 44 -75 55 -24 20 -24 20
-10 0 8 -11 32 -41 53 -68 l39 -47 -21 -73 c-14 -49 -19 -60 -17 -33 5 43 -10
37 -18 -9 -8 -49 -48 -189 -56 -198 -4 -5 -8 15 -8 45 0 29 -1 64 -2 78 -2 21
-4 20 -10 -10 -5 -19 -20 -75 -34 -125 -42 -145 -94 -356 -102 -410 -4 -27
-15 -69 -25 -91 -36 -85 -57 -230 -65 -444 -3 -85 -6 -184 -8 -219 -3 -77 4
-62 39 89 61 266 90 374 93 348 2 -15 -17 -127 -43 -250 -71 -349 -72 -353
-103 -369 -15 -8 -84 -51 -155 -96 -70 -46 -129 -83 -132 -83 -6 0 -33 62 -46
105 -47 148 -57 409 -24 615 23 143 65 301 96 363 11 21 18 45 15 53 -3 8 -2
13 2 10 4 -3 14 5 22 17 12 21 12 21 -5 7 -56 -47 98 171 194 274 47 50 103
104 156 151 l30 26 -30 -18 c-68 -41 -178 -134 -273 -232 -46 -47 -76 -72 -66
-56 10 17 21 32 24 35 3 3 23 28 44 55 l40 50 -34 -30 c-91 -81 -168 -172
-224 -264 -47 -77 -56 -80 -15 -3 161 290 287 438 479 559 52 33 29 28 -30 -7
-28 -16 -54 -30 -57 -30 -13 0 -163 -108 -241 -172 -159 -134 -267 -291 -362
-528 -19 -47 -37 -89 -42 -94 -9 -11 24 106 51 184 17 47 17 51 3 31 -22 -31
-78 -158 -102 -231 -54 -161 -80 -341 -76 -525 4 -159 21 -267 56 -356 12 -30
24 -62 26 -72 2 -11 19 -48 39 -84 l36 -65 -23 -22 c-13 -12 -41 -36 -63 -52
-50 -36 -92 -74 -83 -74 4 0 26 13 50 28 24 16 61 39 83 51 43 24 30 10 -35
-39 -103 -78 -195 -152 -198 -160 -4 -9 484 233 543 271 99 63 91 55 -89 -86
-189 -148 -206 -164 -116 -112 108 62 257 141 245 130 -5 -5 -44 -38 -84 -73
-41 -35 -71 -61 -65 -59 29 13 123 64 147 81 16 11 30 19 32 17 2 -2 -34 -32
-79 -66 -82 -63 -253 -219 -206 -189 78 50 76 40 -10 -44 -52 -51 -81 -83 -63
-71 17 12 33 21 36 21 5 0 198 117 302 182 22 14 51 30 63 37 24 13 24 13 18
-36 -4 -26 -9 -68 -12 -93 -3 -25 -7 -58 -9 -75 -2 -16 -7 -59 -10 -95 -4 -36
-9 -76 -11 -90 -7 -38 -17 -676 -11 -670 3 3 8 34 12 70 3 36 8 77 11 91 4 30
11 79 19 154 3 28 8 57 10 65 2 8 7 40 11 70 7 66 8 72 30 228 9 67 20 122 24
122 4 0 4 -22 -1 -49 -7 -47 -13 -112 -23 -251 -10 -132 -18 -226 -21 -250 -2
-14 -7 -54 -10 -90 -4 -36 -9 -78 -12 -95 -3 -16 -7 -145 -9 -285 l-4 -255 41
190 c22 105 42 199 45 210 2 11 15 81 29 155 13 74 26 146 29 160 5 28 14 86
23 145 11 81 15 47 9 -70 -4 -66 -9 -135 -10 -152 -7 -66 9 -31 27 60 10 50
21 101 24 112 8 33 21 98 27 140 4 22 11 56 16 75 5 19 11 57 15 84 3 27 8 53
10 57 3 3 7 27 9 53 3 26 8 61 11 79 12 62 13 72 15 87 5 42 16 -45 14 -112
-1 -43 2 -78 7 -78 5 0 9 12 10 28 0 15 3 38 5 52 2 14 11 63 20 110 8 47 23
123 34 170 11 47 27 119 35 162 l17 76 126 84 c69 45 130 88 137 93 6 6 20 15
30 21 139 80 338 218 573 397 177 135 224 175 166 143 -117 -67 -315 -183
-360 -213 -54 -35 -17 0 96 92 66 54 120 100 120 102 0 3 -6 1 -12 -4 -7 -6
-62 -36 -123 -68 -110 -57 -110 -57 -70 -20 22 20 55 48 73 62 48 37 33 38
-32 2 -32 -17 -59 -29 -61 -27 -1 1 37 35 86 73 49 39 89 73 89 76 0 4 -38
-13 -85 -37 -46 -24 -86 -44 -90 -44 -17 0 3 22 65 70 39 30 70 56 70 57 0 5
-173 -80 -199 -98 -9 -6 -2 1 15 17 31 28 66 58 149 125 22 17 36 30 30 28
-24 -10 -461 -232 -470 -239 -19 -16 -257 -131 -261 -127 -4 4 4 47 49 252 3
11 5 -4 6 -34 1 -58 7 -64 15 -16 3 17 17 86 31 155 32 154 34 164 39 193 3
12 14 60 25 107 11 47 23 103 26 125 4 22 8 47 10 55 2 8 7 38 11 65 3 28 8
59 10 70 3 11 7 38 9 59 5 43 15 112 20 136 2 8 4 27 4 43 1 35 8 34 56 -8 22
-19 60 -49 85 -67 l45 -33 -36 50 c-51 73 -56 83 -23 55 16 -14 31 -27 34 -30
3 -3 48 -41 100 -85 52 -44 97 -82 100 -85 20 -20 53 -42 44 -30 -79 109 -94
133 -63 100 162 -176 249 -268 337 -354 110 -107 186 -199 101 -121 -24 22
-46 42 -49 45 -20 22 -152 130 -157 130 -4 0 5 -12 19 -27 14 -16 33 -41 43
-58 10 -16 -49 38 -130 120 l-149 150 69 -100 c38 -55 130 -180 203 -279 74
-98 137 -189 141 -202 6 -21 249 -333 342 -438 91 -103 216 -244 256 -290 l43
-47 -23 -32 c-12 -18 -24 -34 -27 -37 -3 -3 -17 -21 -32 -41 -40 -54 -176
-193 -141 -144 15 22 39 60 52 85 l24 45 -38 -35 c-21 -19 -55 -52 -77 -72
-39 -39 -64 -52 -36 -20 9 9 21 28 28 41 l12 24 -28 -20 c-49 -35 -176 -163
-162 -163 7 0 38 18 68 41 l55 40 -65 -62 c-36 -34 -82 -73 -103 -87 -45 -30
-43 -38 6 -17 63 26 40 6 -33 -29 -39 -19 -76 -37 -83 -39 -17 -6 34 0 58 8
11 3 0 -4 -25 -16 -59 -28 -225 -76 -308 -89 -36 -6 -68 -13 -71 -14 -3 -2
-35 -8 -71 -12 -107 -13 -291 -9 -340 8 -8 3 -35 11 -59 18 -23 6 -50 14 -60
16 -39 12 40 -25 94 -44 68 -24 139 -41 205 -49 25 -3 52 -7 60 -9 8 -1 69 -4
135 -5 87 -2 106 -4 70 -8 -57 -8 -232 -5 -287 3 -21 3 -55 8 -75 11 -21 3
-45 7 -53 10 -8 2 -26 6 -40 9 -53 10 -69 15 -198 59 -72 24 -132 43 -132 42
0 -2 19 -12 43 -23 129 -59 158 -72 168 -72 5 0 24 -7 41 -16 17 -9 72 -27
122 -40 137 -37 39 -24 -129 16 -49 12 -105 28 -122 35 -18 8 -33 10 -33 6 0
-5 19 -17 43 -26 23 -9 53 -22 67 -28 14 -6 27 -11 30 -12 3 0 43 -13 90 -28
47 -14 110 -33 140 -41 98 -25 11 -17 -143 14 -82 17 -189 44 -239 60 -50 17
-93 29 -94 27 -6 -5 192 -87 284 -118 229 -77 493 -110 697 -85 134 16 302 65
425 125 41 20 78 37 82 39 5 2 8 -1 8 -7 0 -6 -5 -11 -12 -11 -6 0 -19 -6 -27
-14 -9 -8 -40 -26 -69 -41 -77 -38 -57 -42 30 -5 160 67 329 173 417 261 63
63 139 165 173 232 l14 28 74 -73 c78 -77 78 -67 -1 44 -27 37 -47 68 -44 68
8 0 242 -235 353 -355 52 -55 83 -85 70 -66 -94 137 -126 182 -150 212 -32 40
-87 113 -108 143 -8 12 21 -13 64 -54 43 -41 83 -80 90 -85 140 -124 212 -190
214 -197 2 -4 8 -8 14 -8 5 0 -1 15 -13 32 -19 29 -15 27 27 -13 27 -25 67
-61 88 -80 22 -19 67 -60 100 -92 81 -77 107 -99 75 -62 -30 36 -128 167 -155
210 -10 16 -24 37 -31 45 -6 8 -31 40 -55 72 -24 31 -58 76 -77 100 -33 42
-33 41 24 -12 32 -30 90 -85 127 -122 69 -68 104 -93 57 -40 -14 15 -37 43
-51 62 -38 52 -190 234 -271 325 -114 127 -248 264 -612 629 -187 188 -328
332 -315 320 85 -72 114 -98 194 -174 101 -96 90 -78 -68 118 -57 71 -95 126
-90 131 19 17 254 171 261 171 5 0 13 -9 18 -19 46 -89 99 -188 105 -196 17
-22 48 -143 49 -194 1 -19 3 -32 6 -29 7 7 7 145 0 181 -3 15 -3 27 -1 27 5 0
22 -56 30 -100 2 -14 9 -52 15 -85 6 -33 12 -92 13 -132 2 -39 6 -68 11 -64 8
8 11 232 3 268 -3 12 -7 53 -10 90 l-5 68 30 -115 c25 -96 31 -139 35 -264 2
-82 6 -152 9 -154 3 -3 5 4 5 16 0 12 0 23 0 25 1 1 5 20 10 42 6 22 10 96 11
165 1 131 12 131 25 0 4 -36 8 -76 9 -90 2 -14 3 -49 4 -79 1 -79 10 -58 17
40 5 74 8 119 14 169 3 27 31 -104 32 -155 2 -50 -9 -162 -18 -193 -5 -15 -4
-15 5 -1 5 8 12 26 15 40 2 13 9 47 16 74 6 28 14 75 17 105 6 59 13 80 13 37
0 -15 4 -27 10 -27 12 0 17 118 7 210 -8 79 -49 253 -71 304 -8 17 -21 49 -29
71 -8 22 -32 76 -52 120 l-37 79 58 55 c61 55 59 57 -11 11 -59 -39 -73 -45
-42 -16 15 14 25 26 22 26 -9 0 15 22 55 50 131 91 90 79 -120 -37 -55 -30
-48 -24 118 101 73 55 130 101 128 103 -2 2 -66 -32 -142 -75 -77 -44 -161
-92 -189 -107 -27 -15 -54 -31 -60 -35 -24 -17 -129 -72 -120 -63 6 6 84 63
175 127 91 64 176 126 190 136 35 27 -159 -78 -437 -237 -24 -13 -43 -22 -43
-19 0 3 39 33 88 67 48 35 92 69 97 75 6 6 19 16 30 22 11 6 16 12 10 12 -5 0
-26 -10 -45 -22 -38 -23 -54 -32 -295 -158 -88 -46 -155 -79 -150 -73 6 5 42
35 82 66 65 52 100 86 77 76 -5 -2 -79 -39 -164 -82 l-155 -79 -63 69 c-36 37
-88 93 -118 124 -72 76 -313 303 -327 308 -7 2 -5 -3 3 -11 8 -8 38 -41 65
-73 28 -33 61 -70 74 -84 37 -40 104 -131 100 -135 -5 -5 -224 205 -275 264
l-39 44 40 -29 39 -30 -41 55 c-23 30 -40 56 -39 58 2 2 38 3 79 3 226 0 384
-32 507 -102 33 -19 34 -19 13 0 -42 36 -23 31 80 -22 117 -60 163 -92 226
-157 24 -25 39 -35 33 -23 -15 28 -135 151 -192 196 -25 20 -83 56 -130 81
-108 58 -96 60 19 3 88 -44 207 -118 250 -156 13 -12 27 -21 30 -21 16 2 -133
127 -215 181 -52 34 -94 64 -94 66 0 5 148 -76 208 -114 28 -19 52 -31 52 -29
0 3 -40 35 -90 72 -49 37 -90 69 -90 71 0 17 255 -155 327 -221 84 -78 61 -38
-27 47 -133 127 -187 169 -297 227 -106 57 -60 46 59 -13 62 -31 114 -55 115
-53 4 4 -77 56 -88 56 -5 0 -9 4 -9 9 0 16 -241 129 -325 152 -120 33 -112 40
16 13 62 -13 114 -22 116 -21 6 7 -229 77 -312 93 -94 18 -352 25 -412 12 -26
-6 -37 -3 -57 15 -22 20 -36 33 -100 86 -16 13 -18 13 -11 1 8 -13 7 -13 -10
0 -177 139 -210 166 -213 172 -2 5 -10 8 -17 8 -7 0 -15 4 -17 8 -4 11 -78 66
-78 58z m1160 -661 c14 -8 21 -14 15 -14 -5 0 -21 6 -35 14 -14 8 -20 14 -15
14 6 0 21 -6 35 -14z m55 -95 c3 -6 -1 -7 -9 -4 -18 7 -21 14 -7 14 6 0 13 -4
16 -10z m-1944 -503 c-10 -9 -11 -8 -5 6 3 10 9 15 12 12 3 -3 0 -11 -7 -18z"/>
<path d="M2513 4414 c9 -9 107 -12 107 -2 0 4 -25 8 -57 8 -31 0 -54 -3 -50
-6z"/>
<path d="M2503 4347 c-3 -6 -2 -7 3 -4 6 3 16 2 24 -4 12 -7 10 -9 -7 -10 -13
-1 -27 -3 -33 -4 -5 -1 -17 -3 -25 -4 -8 0 -15 -5 -15 -9 0 -10 256 -14 291
-4 24 6 24 6 -6 13 -16 4 -52 8 -80 9 l-50 2 40 13 c39 13 39 13 -48 13 -48 0
-90 -5 -94 -11z"/>
<path d="M4259 3743 c-13 -16 -12 -17 4 -4 16 13 21 21 13 21 -2 0 -10 -8 -17
-17z"/>
<path d="M4165 3250 c5 -8 14 -37 21 -64 7 -28 24 -91 37 -141 14 -49 30 -120
38 -157 7 -38 16 -68 20 -68 11 0 2 155 -12 215 -14 59 -82 209 -100 220 -8 6
-10 4 -4 -5z"/>
<path d="M882 3053 c-62 -135 -83 -224 -87 -361 -3 -111 33 -322 55 -322 4 0
6 84 6 188 -1 237 15 394 49 506 8 27 13 51 12 53 -2 2 -18 -27 -35 -64z"/>
<path d="M4315 3057 c4 -26 13 -65 21 -85 l14 -37 -5 58 c-3 32 -12 70 -20 85
-16 27 -16 26 -10 -21z"/>
<path d="M749 2848 c-18 -69 -24 -130 -19 -188 8 -88 21 -31 35 163 3 37 3 67
0 67 -2 0 -9 -19 -16 -42z"/>
<path d="M4202 2615 c0 -16 2 -22 5 -12 2 9 2 23 0 30 -3 6 -5 -1 -5 -18z"/>
<path d="M4010 2459 c0 -5 5 -7 10 -4 6 3 10 8 10 11 0 2 -4 4 -10 4 -5 0 -10
-5 -10 -11z"/>
<path d="M850 2350 c0 -5 5 -10 11 -10 5 0 7 5 4 10 -3 6 -8 10 -11 10 -2 0
-4 -4 -4 -10z"/>
<path d="M3245 2047 c-11 -12 -27 -31 -35 -42 -14 -19 -14 -19 5 -5 20 15 65
60 65 67 0 10 -17 0 -35 -20z"/>
<path d="M3646 1595 c-49 -29 -129 -96 -122 -102 6 -7 116 69 145 101 29 31
28 31 -23 1z"/>
<path d="M3674 1507 c-37 -25 -67 -65 -37 -48 26 13 88 71 77 70 -5 0 -23 -10
-40 -22z"/>
<path d="M3715 1430 c-3 -6 1 -7 9 -4 18 7 21 14 7 14 -6 0 -13 -4 -16 -10z"/>
<path d="M3200 1390 c-9 -6 -10 -10 -3 -10 6 0 15 5 18 10 8 12 4 12 -15 0z"/>
<path d="M1591 874 c0 -11 3 -14 6 -6 3 7 2 16 -1 19 -3 4 -6 -2 -5 -13z"/>
</g>
</svg>
