           <!-- <svg xmlns="http://www.w3.org/2000/svg" viewBox="0 0 512 512">
              <path
                xmlns="http://www.w3.org/2000/svg"
                d="M512 503.5H381.7a48 48 0 01-45.3-32.1L265 268.1l-9-25.5 2.7-124.6L338.2 8.5l23.5 67.1L512 503.5z"
                fill="#FEDE5A"
                data-original="#28b446"
              />
              <path
                xmlns="http://www.w3.org/2000/svg"
                fill="#FEDE5A"
                data-original="#219b38"
                d="M361.7 75.6L265 268.1l-9-25.5 2.7-124.6L338.2 8.5z"
              />
              <path
                xmlns="http://www.w3.org/2000/svg"
                d="M338.2 8.5l-82.2 234-80.4 228.9a48 48 0 01-45.3 32.1H0l173.8-495h164.4z"
                fill="#FEDE5A"
                data-original="#518ef8"
              />
            </svg> -->

            <svg xmlns="http://www.w3.org/2000/svg" width="2500" height="1892" viewBox="0 0 41.298 31.248"><path fill="#fede5a" d="M19.656 0h12.96l1.439 2.16h-2.736c-1.8 0-2.159.504-1.367 1.872l10.512 18.432c1.512 2.593 1.439 8.784-4.248 8.784H20.304L18.72 28.44H0l5.472-9.433h15.624L27 29.232h3.24c1.151 0 .863-1.152.071-2.592L17.496 4.752C16.056 2.16 17.928 0 19.656 0zm-.072 16.272H7.056l6.192-10.8 6.336 10.8z" fill-rule="evenodd" clip-rule="evenodd"/></svg>
